Coordinates
version=1
nRows=30
nColumns=38
inDegrees=no

Units are S.I. units (second, meters, Newtons, ...)
If the header above contains a line with 'inDegrees', this indicates whether rotational values are in degrees (yes) or radians (no).

endheader
time	pelvis_tilt	pelvis_list	pelvis_rotation	pelvis_tx	pelvis_ty	pelvis_tz	hip_flexion_r	hip_adduction_r	hip_rotation_r	knee_angle_r	ankle_angle_r	subtalar_angle_r	mtp_angle_r	hip_flexion_l	hip_adduction_l	hip_rotation_l	knee_angle_l	ankle_angle_l	subtalar_angle_l	mtp_angle_l	lumbar_extension	lumbar_bending	lumbar_rotation	arm_flex_r	arm_add_r	arm_rot_r	elbow_flex_r	pro_sup_r	wrist_flex_r	wrist_dev_r	arm_flex_l	arm_add_l	arm_rot_l	elbow_flex_l	pro_sup_l	wrist_flex_l	wrist_dev_l
8.0425	0.0756015	-0.0187481	-3.20513	-0.27123	0.991391	0.0519036	-0.147314	0.010623	-0.00218337	0.417922	-0.184436	0	0	0.503749	-0.00747903	-0.0565012	0.366004	0.196889	0	0	-0.240969	-0.0778602	0.375151	0.372684	-0.612018	0.683025	2.23144	1.43224	0	0	-0.292272	-0.596137	0.511283	1.81758	1.45774	0	0
8.0525	0.0817365	-0.0149918	-3.20433	-0.273194	0.991539	0.0529902	-0.147167	0.0108395	-0.00792372	0.435561	-0.216151	0	0	0.503309	-0.00741654	-0.0426513	0.319407	0.200708	0	0	-0.231539	-0.0770854	0.390179	0.348283	-0.615047	0.683579	2.22113	1.43817	0	0	-0.281235	-0.594425	0.522761	1.81542	1.45954	0	0
8.06249	0.0862097	-0.0113765	-3.20324	-0.275054	0.990757	0.0541643	-0.145086	0.0105392	-0.014557	0.460277	-0.24157	0	0	0.502846	-0.00738437	-0.0298386	0.283635	0.20307	0	0	-0.224048	-0.0763851	0.403948	0.322438	-0.617346	0.682085	2.20771	1.44322	0	0	-0.265912	-0.591998	0.536975	1.8127	1.46117	0	0
8.07248	0.0887131	-0.00828007	-3.20176	-0.276775	0.989056	0.0554132	-0.141477	0.00931805	-0.0220777	0.491805	-0.260826	0	0	0.502372	-0.0070686	-0.0189562	0.259471	0.203528	0	0	-0.218899	-0.0761738	0.415811	0.296063	-0.618692	0.679028	2.1911	1.44707	0	0	-0.246769	-0.588842	0.553276	1.8096	1.46257	0	0
8.08247	0.0889474	-0.0060297	-3.19976	-0.278322	0.986469	0.0567208	-0.136773	0.00685021	-0.0304278	0.529754	-0.274155	0	0	0.501793	-0.00617647	-0.0107074	0.24732	0.201682	0	0	-0.216515	-0.0768184	0.42518	0.270024	-0.618924	0.674872	2.17132	1.44949	0	0	-0.224236	-0.584939	0.571046	1.80628	1.46366	0	0
8.09246	0.0866469	-0.00489113	-3.19714	-0.279658	0.983053	0.0580673	-0.131388	0.002907	-0.0394904	0.573636	-0.281803	0	0	0.500936	-0.00445349	-0.00551756	0.247205	0.197278	0	0	-0.21731	-0.0786228	0.431547	0.245078	-0.617943	0.670027	2.14848	1.45039	0	0	-0.198679	-0.580284	0.589728	1.80288	1.46438	0	0
8.10245	0.0816092	-0.00505917	-3.1938	-0.280746	0.978883	0.0594295	-0.125681	-0.00262847	-0.0490897	0.622868	-0.283991	0	0	0.499588	-0.00170149	-0.00348983	0.258785	0.190381	0	0	-0.221652	-0.0818123	0.434504	0.221837	-0.615706	0.664825	2.12283	1.44977	0	0	-0.17038	-0.574897	0.608854	1.79953	1.46468	0	0
8.11244	0.0737264	-0.00664527	-3.18966	-0.28155	0.974054	0.060781	-0.119907	-0.00974874	-0.0589926	0.676779	-0.280955	0	0	0.497537	0.00220295	-0.00439823	0.281388	0.181591	0	0	-0.229815	-0.0865122	0.43375	0.200756	-0.612216	0.659523	2.09467	1.44774	0	0	-0.139567	-0.568817	0.628034	1.79633	1.46452	0	0
8.12243	0.0630156	-0.00966908	-3.18468	-0.28204	0.968675	0.0620939	-0.114186	-0.0183178	-0.0689188	0.734601	-0.273022	0	0	0.49461	0.00729944	-0.00771058	0.314045	0.17217	0	0	-0.241937	-0.0927308	0.42909	0.182125	-0.607508	0.654312	2.0644	1.44449	0	0	-0.106429	-0.5621	0.646948	1.79334	1.46388	0	0
8.13242	0.0496414	-0.014059	-3.17885	-0.28219	0.96287	0.0633413	-0.108471	-0.0280818	-0.0785609	0.79549	-0.260673	0	0	0.490687	0.0135457	-0.0126604	0.35553	0.163946	0	0	-0.25798	-0.100355	0.420449	0.166046	-0.601644	0.649298	2.03248	1.44027	0	0	-0.0711252	-0.554812	0.66536	1.79061	1.46275	0	0
8.14241	0.0339249	-0.0196467	-3.17219	-0.281981	0.956775	0.0644991	-0.102537	-0.0386804	-0.0876109	0.858538	-0.24453	0	0	0.485689	0.0208093	-0.0183773	0.40437	0.15898	0	0	-0.277708	-0.109144	0.407881	0.152424	-0.594713	0.644489	1.99941	1.43537	0	0	-0.033795	-0.547017	0.683119	1.7881	1.46117	0	0
8.1524	0.0163435	-0.0261574	-3.1648	-0.281406	0.95053	0.0655478	-0.0959884	-0.0496641	-0.0957958	0.92279	-0.225314	0	0	0.479531	0.0288491	-0.0240419	0.458812	0.159109	0	0	-0.300661	-0.118719	0.391595	0.140962	-0.586826	0.639797	1.96573	1.43004	0	0	0.00541506	-0.53877	0.700141	1.78579	1.45924	0	0
8.16239	-0.00247778	-0.0332145	-3.15681	-0.280473	0.944278	0.0664742	-0.0882831	-0.0605328	-0.102906	0.987255	-0.203784	0	0	0.472095	0.0373002	-0.0290424	0.516791	0.165515	0	0	-0.326145	-0.128581	0.371976	0.131166	-0.578131	0.635042	1.93203	1.42448	0	0	0.046321	-0.530103	0.716394	1.78361	1.4571	0	0
8.17238	-0.0217964	-0.0403659	-3.14846	-0.279209	0.938155	0.0672745	-0.0787736	-0.0707929	-0.10879	1.05092	-0.180673	0	0	0.463255	0.0456793	-0.0330731	0.57603	0.178514	0	0	-0.353243	-0.138145	0.349618	0.12236	-0.568825	0.629962	1.89893	1.41886	0	0	0.0886949	-0.521011	0.731904	1.78148	1.45485	0	0
8.18237	-0.0408139	-0.0471333	-3.14009	-0.277658	0.932287	0.067959	-0.0667734	-0.0800263	-0.113324	1.11278	-0.15665	0	0	0.452918	0.0534413	-0.0361066	0.634255	0.197634	0	0	-0.380867	-0.14681	0.325338	0.113714	-0.559184	0.624206	1.86705	1.41329	0	0	0.132278	-0.511433	0.746772	1.7793	1.45261	0	0
8.19236	-0.0587725	-0.0530793	-3.13214	-0.275876	0.926793	0.0685539	-0.0516629	-0.0879524	-0.116376	1.17185	-0.132299	0	0	0.44104	0.0600827	-0.0382879	0.689431	0.2219	0	0	-0.407875	-0.154041	0.300129	0.104321	-0.549569	0.617367	1.83708	1.40789	0	0	0.176798	-0.501254	0.761169	1.77696	1.45046	0	0
8.20236	-0.0750503	-0.0578651	-3.12508	-0.273925	0.921781	0.0690943	-0.0330017	-0.0944435	-0.11784	1.22719	-0.108095	0	0	0.427598	0.0652313	-0.0398206	0.739889	0.250089	0	0	-0.433217	-0.15945	0.27501	0.0933324	-0.540382	0.609055	1.80963	1.40277	0	0	0.221978	-0.490348	0.775284	1.77439	1.44847	0	0
8.21235	-0.0892141	-0.0612596	-3.11928	-0.271862	0.917355	0.0696068	-0.0106034	-0.0994656	-0.117712	1.27793	-0.0843945	0	0	0.412573	0.0686615	-0.0408722	0.784373	0.280876	0	0	-0.456067	-0.162808	0.250855	0.0800939	-0.531981	0.598972	1.78529	1.3981	0	0	0.267542	-0.478648	0.789248	1.77165	1.44671	0	0
8.22234	-0.101036	-0.0631249	-3.11495	-0.269729	0.913604	0.0700981	0.0154276	-0.103011	-0.116164	1.32322	-0.0614341	0	0	0.395941	0.0702675	-0.0415215	0.822036	0.312939	0	0	-0.475914	-0.164025	0.228283	0.064191	-0.524617	0.586929	1.76454	1.39402	0	0	0.313236	-0.466212	0.803105	1.76897	1.44519	0	0
8.23233	-0.110478	-0.0634142	-3.11209	-0.267563	0.910609	0.0705571	0.0446985	-0.105096	-0.113558	1.36229	-0.0393427	0	0	0.377654	0.0700557	-0.041748	0.852383	0.345033	0	0	-0.492574	-0.163118	0.20766	0.0453929	-0.518415	0.572793	1.74777	1.39067	0	0	0.358866	-0.453213	0.816862	1.76673	1.44391	0	0
8.24232	-0.117651	-0.0621823	-3.11052	-0.265393	0.908437	0.0709662	0.0765796	-0.105803	-0.110416	1.39443	-0.0181733	0	0	0.357637	0.0681531	-0.0414551	0.875178	0.376009	0	0	-0.506124	-0.160192	0.189125	0.0236033	-0.513387	0.556474	1.73521	1.38814	0	0	0.404298	-0.43989	0.830533	1.76537	1.44285	0	0
8.25231	-0.12273	-0.0595555	-3.1099	-0.263244	0.907143	0.0713096	0.110311	-0.105268	-0.107348	1.41898	0.00204784	0	0	0.335829	0.0647683	-0.040503	0.890372	0.404839	0	0	-0.516793	-0.155398	0.172632	-0.00114767	-0.509456	0.537955	1.72691	1.38639	0	0	0.449413	-0.426505	0.844127	1.76529	1.44198	0	0
8.2623	-0.125904	-0.0556818	-3.10985	-0.261142	0.906759	0.0715775	0.145099	-0.103647	-0.104964	1.4354	0.021261	0	0	0.312222	0.060139	-0.0387222	0.898059	0.430593	0	0	-0.524856	-0.148875	0.157973	-0.0286528	-0.506484	0.517378	1.72269	1.38531	0	0	0.493995	-0.413328	0.857565	1.76684	1.44131	0	0
8.27229	-0.127317	-0.0506991	-3.10999	-0.259116	0.907299	0.0717678	0.180203	-0.101078	-0.103793	1.44324	0.0393622	0	0	0.286914	0.0545014	-0.035925	0.898477	0.452471	0	0	-0.530532	-0.140729	0.144816	-0.0585184	-0.504304	0.495086	1.72212	1.38467	0	0	0.537658	-0.400627	0.870626	1.77026	1.44088	0	0
8.28228	-0.127048	-0.0447377	-3.11003	-0.257197	0.908752	0.071885	0.214981	-0.0976884	-0.104201	1.44215	0.0561979	0	0	0.260116	0.0480856	-0.0319488	0.891998	0.46978	0	0	-0.533945	-0.13106	0.132772	-0.0901933	-0.502755	0.471602	1.72459	1.38421	0	0	0.579829	-0.388661	0.882952	1.77576	1.44075	0	0
8.29227	-0.125131	-0.037933	-3.1098	-0.255426	0.911091	0.0719374	0.248898	-0.0935907	-0.106345	1.43192	0.0715949	0	0	0.232131	0.0411077	-0.0267227	0.879112	0.481911	0	0	-0.535132	-0.119989	0.121443	-0.123016	-0.501705	0.447568	1.72935	1.38363	0	0	0.619791	-0.377677	0.894103	1.78343	1.44096	0	0
8.30226	-0.121573	-0.0304368	-3.10928	-0.253842	0.914268	0.0719345	0.281506	-0.0888869	-0.110183	1.41242	0.0854125	0	0	0.203328	0.0337646	-0.0203072	0.860423	0.488319	0	0	-0.534089	-0.107685	0.110464	-0.15629	-0.501052	0.423645	1.73566	1.38273	0	0	0.65677	-0.367908	0.903639	1.79335	1.44156	0	0
8.31225	-0.116391	-0.0224248	-3.10855	-0.252485	0.918219	0.0718841	0.312422	-0.0836724	-0.115507	1.38371	0.0975906	0	0	0.174111	0.0262378	-0.0128895	0.836647	0.488537	0	0	-0.530806	-0.094367	0.0995319	-0.189361	-0.500718	0.400426	1.7428	1.38139	0	0	0.690044	-0.359553	0.911217	1.80553	1.44256	0	0
8.32224	-0.109634	-0.0140961	-3.10773	-0.251389	0.922861	0.0717894	0.341293	-0.0780321	-0.121985	1.34594	0.108179	0	0	0.144885	0.0186984	-0.00475563	0.808599	0.482191	0	0	-0.525303	-0.0803049	0.0884275	-0.221677	-0.500639	0.378382	1.75015	1.37963	0	0	0.719021	-0.352763	0.916653	1.81993	1.44386	0	0
8.33223	-0.101395	-0.00566339	-3.10699	-0.250586	0.928096	0.0716469	0.367795	-0.0720332	-0.129206	1.29942	0.117327	0	0	0.116034	0.0113055	0.00375157	0.777169	0.469028	0	0	-0.517645	-0.0658011	0.0770285	-0.252817	-0.500752	0.357842	1.75724	1.37756	0	0	0.743301	-0.347618	0.919945	1.83644	1.4453	0	0
